# xmcd CD database file
#
# Track frame offsets:
#	150
#	13572
#	29635
#	40905
#	52710
#	64147
#	78832
#	88827
#	100525
#	112632
#	124795
#	137742
#	149400
#	164695
#	181080
#	196155
#	211722
#	223252
#	245845
#	263545
#	280162
#	300422
#
# Disc length: 4231 seconds
#
# Revision: 1
# Processed by: cddbd v1.5.2PL0 Copyright (c) Steve Scherf et al.
# Submitted via: CDex 1.51
#
DISCID=2b108516
DTITLE=Bobby Bland - Ask me 'bout nothing (but the blues)
DYEAR=1997
DGENRE=Soul
TTITLE0=Farther Up The Road
TTITLE1=Blues In The Night
TTITLE2=The Feeling Is Gone
TTITLE3=How Does A Cheatin' Woman Feel
TTITLE4=Ain't Nothing You Can Do
TTITLE5=Stormy Monday Blues
TTITLE6=Blue Moon
TTITLE7=Turn On Your Lovelight
TTITLE8=Cry Cry Cry
TTITLE9=I Pity The Fool
TTITLE10=Fever
TTITLE11=I'm Too Far Gone (To Turn Around)
TTITLE12=This Time I'm Gone For Good
TTITLE13=Ask Me 'Bout Nothing (But The Blues)
TTITLE14=Chains Of Love
TTITLE15=That Did It
TTITLE16=Good Time Charlie
TTITLE17=The Thrill Is Gone (With B.B.King)
TTITLE18=Everyday (I Have The Blues) (With B.B. King)
TTITLE19=Yolanda
TTITLE20=(If Loving You Is Wrong) I Don't Want To Be Right
TTITLE21=Ain't No Love In The Heart Of The City
EXTD=YEAR: 1997
EXTT0=
EXTT1=
EXTT2=
EXTT3=
EXTT4=
EXTT5=
EXTT6=
EXTT7=
EXTT8=
EXTT9=
EXTT10=
EXTT11=
EXTT12=
EXTT13=
EXTT14=
EXTT15=
EXTT16=
EXTT17=
EXTT18=
EXTT19=
EXTT20=
EXTT21=
PLAYORDER=
